<?xml version="1.0" standalone="no"?>
<!DOCTYPE svg PUBLIC "-//W3C//DTD SVG 20010904//EN"
 "http://www.w3.org/TR/2001/REC-SVG-20010904/DTD/svg10.dtd">
<svg version="1.0" xmlns="http://www.w3.org/2000/svg"
 width="1100.000000pt" height="1100.000000pt" viewBox="0 0 1100.000000 1100.000000"
 preserveAspectRatio="xMidYMid meet">
<metadata>
Created by potrace 1.14, written by Peter Selinger 2001-2017
</metadata>
<g transform="translate(0.000000,1100.000000) scale(0.100000,-0.100000)"
fill="#000000" stroke="none">
<path d="M5388 10175 c-2 -1 -50 -5 -108 -9 -58 -3 -123 -8 -145 -11 -22 -3
-60 -7 -85 -10 -95 -12 -198 -30 -286 -50 -34 -8 -73 -16 -85 -19 -76 -14
-322 -84 -374 -106 -11 -5 -54 -21 -95 -36 -78 -28 -100 -37 -240 -99 -248
-110 -568 -307 -737 -451 -12 -11 -32 -28 -44 -38 -22 -18 -100 -89 -204 -185
-27 -26 -90 -82 -140 -126 -49 -44 -92 -83 -95 -86 -3 -3 -61 -52 -130 -109
-227 -188 -470 -361 -715 -507 -173 -103 -270 -156 -510 -276 -241 -121 -377
-185 -645 -304 -311 -137 -320 -141 -320 -148 0 -3 4 -4 8 -1 6 4 178 40 387
82 11 2 43 8 71 14 28 6 64 13 80 16 16 3 49 10 74 15 25 6 55 13 67 15 35 6
57 10 228 44 88 17 216 42 285 55 133 26 505 89 580 99 25 3 54 8 65 10 11 2
47 7 80 11 32 4 67 8 76 10 20 4 100 14 154 19 22 3 61 7 88 10 79 10 129 15
207 21 41 4 86 8 100 11 14 2 70 6 125 10 55 3 118 8 140 9 22 2 94 6 160 10
66 4 152 8 190 10 437 25 1493 26 1614 1 22 -5 45 -8 156 -21 28 -3 57 -8 65
-10 8 -2 31 -7 50 -10 19 -3 55 -11 80 -16 25 -6 52 -12 60 -14 8 -2 44 -11
80 -20 36 -9 70 -18 75 -19 147 -33 483 -171 648 -267 74 -43 208 -129 217
-139 3 -3 23 -18 45 -34 229 -169 384 -411 525 -821 34 -97 101 -337 114 -405
3 -14 10 -50 16 -80 32 -163 58 -360 65 -507 14 -243 24 -1229 25 -2418 1
-401 1 -743 0 -760 0 -25 -7 -33 -38 -47 -109 -48 -133 -59 -205 -87 -152 -61
-417 -143 -506 -157 -14 -2 -37 -7 -51 -10 -44 -10 -63 -14 -165 -29 -170 -25
-243 -30 -455 -30 -177 0 -383 10 -400 20 -3 1 -27 5 -55 9 -57 7 -81 11 -185
33 -388 80 -746 234 -1057 454 -44 32 -92 66 -105 77 -221 185 -338 306 -482
497 -188 251 -328 517 -426 811 -33 102 -83 282 -96 349 -2 11 -8 43 -14 70
-58 293 -71 673 -35 1040 1 11 5 43 9 70 4 28 9 64 11 80 17 127 86 436 122
545 8 25 16 52 18 60 11 47 95 277 173 470 3 8 -10 -3 -29 -25 -18 -22 -36
-42 -39 -45 -3 -3 -24 -27 -45 -55 -22 -27 -43 -52 -46 -55 -17 -14 -205 -269
-266 -360 -357 -533 -636 -1229 -738 -1840 -3 -19 -8 -42 -10 -50 -2 -8 -7
-37 -10 -65 -3 -27 -7 -63 -10 -80 -34 -201 -41 -750 -11 -925 2 -14 7 -52 11
-85 12 -104 54 -305 95 -448 194 -678 608 -1220 1182 -1547 312 -178 732 -304
1118 -336 163 -13 540 -7 633 12 12 2 45 6 72 9 55 7 97 13 135 20 54 11 76
15 105 21 176 32 539 147 724 230 396 178 690 358 1012 619 l125 103 17 -47
c34 -95 120 -222 217 -321 52 -53 115 -112 140 -131 192 -148 544 -311 847
-392 198 -53 280 -69 458 -91 190 -23 527 -23 730 0 22 2 63 7 90 9 90 10 288
45 395 71 58 14 114 26 126 28 11 1 28 7 38 13 14 8 7 10 -31 11 -26 1 -64 4
-83 7 -19 2 -55 7 -79 10 -70 8 -193 34 -291 60 -109 29 -259 89 -391 155 -68
34 -131 68 -140 76 -8 8 -19 14 -23 14 -10 0 -142 93 -219 154 -211 168 -311
300 -427 565 -61 139 -82 241 -83 391 -1 120 11 516 18 630 2 30 6 107 10 170
3 63 8 147 10 185 3 39 7 104 9 145 13 207 17 259 21 305 3 28 7 88 10 135 3
47 8 112 10 145 6 64 10 123 20 245 3 41 8 95 10 120 5 57 17 206 30 360 3 41
8 100 10 130 10 126 18 260 31 555 16 338 8 1513 -10 1544 -2 3 -7 33 -11 66
-12 111 -40 287 -55 345 -5 19 -11 51 -14 70 -9 60 -63 263 -107 397 -158 491
-399 894 -734 1228 -126 127 -181 175 -299 262 -39 29 -76 57 -82 62 -13 11
-159 103 -229 144 -114 68 -474 232 -550 251 -5 2 -17 6 -25 9 -40 17 -257 85
-295 92 -5 2 -37 10 -70 18 -131 34 -316 72 -400 82 -27 3 -63 8 -80 10 -129
19 -235 26 -440 29 -102 2 -186 2 -187 1z m-1485 -1138 c147 -87 147 -297 -1
-383 -97 -57 -229 -29 -292 64 -87 126 -28 296 118 343 45 14 129 3 175 -24z"/>
</g>
</svg>
